#N canvas 477 121 737 572 10;
#X obj 140 131 ctl/bFilteredCtlIn;
#X msg 234 99 17;
#X msg 139 97 1;
#X obj 138 54 loadbang;
#X obj 28 435 util/bSink~;
#X obj 190 218 instruments/bTapeMachine;
#X obj 431 108 loadbang;
#X floatatom 684 51 0 0 0 0 - - -;
#X floatatom 648 51 0 0 0 0 - - -;
#X floatatom 612 49 0 0 0 0 - - -;
#X obj 612 24 ctlin;
#X msg 433 140 ../samples/jfk.wav;
#X obj 240 181 / 64;
#X connect 0 0 12 0;
#X connect 1 0 0 1;
#X connect 2 0 0 0;
#X connect 3 0 2 0;
#X connect 3 0 1 0;
#X connect 5 0 4 0;
#X connect 5 0 4 1;
#X connect 6 0 11 0;
#X connect 9 0 12 0;
#X connect 10 0 9 0;
#X connect 10 1 8 0;
#X connect 10 2 7 0;
#X connect 11 0 5 3;
#X connect 12 0 5 1;
