#N canvas 687 76 425 209 10;
#X floatatom 304 39 0 0 0 0 - - -;
#X floatatom 268 39 0 0 0 0 - - -;
#X floatatom 232 39 0 0 0 0 - - -;
#X obj 232 14 ctlin;
#N canvas 650 196 486 342 space-achievement 0;
#X obj -80 147 instruments/bSampler;
#X obj -80 70 ctl/bFilteredCtlIn;
#X msg 25 46 17;
#X msg -80 46 1;
#X obj -80 23 loadbang;
#X obj -80 123 pack 69 f;
#X obj -80 97 t b f;
#X obj 95 93 loadbang;
#X obj -80 290 dac~;
#X obj -80 259 *~ 0.2;
#X msg 95 117 ../../samples/jfk-space-achievement.wav;
#X connect 0 0 9 0;
#X connect 1 0 6 0;
#X connect 2 0 1 1;
#X connect 3 0 1 0;
#X connect 4 0 3 0;
#X connect 4 0 2 0;
#X connect 5 0 0 1;
#X connect 6 0 5 0;
#X connect 6 1 5 1;
#X connect 7 0 10 0;
#X connect 9 0 8 0;
#X connect 9 0 8 1;
#X connect 10 0 0 2;
#X restore 20 22 pd space-achievement;
#N canvas 83 85 488 374 adventure 0;
#X obj -70 157 instruments/bSampler;
#X obj -70 80 ctl/bFilteredCtlIn;
#X msg 35 56 17;
#X obj -70 33 loadbang;
#X obj -70 133 pack 69 f;
#X obj -70 107 t b f;
#X obj 105 103 loadbang;
#X obj -70 300 dac~;
#X obj -70 269 *~ 0.2;
#X msg 105 127 ../../samples/jfk-adventure.wav;
#X msg -70 56 2;
#X connect 0 0 8 0;
#X connect 1 0 5 0;
#X connect 2 0 1 1;
#X connect 3 0 10 0;
#X connect 3 0 2 0;
#X connect 4 0 0 1;
#X connect 5 0 4 0;
#X connect 5 1 4 1;
#X connect 6 0 9 0;
#X connect 8 0 7 0;
#X connect 8 0 7 1;
#X connect 9 0 0 2;
#X connect 10 0 1 0;
#X restore 20 43 pd adventure;
#N canvas 251 269 457 319 sputnik 0;
#X obj -60 137 instruments/bSampler;
#X obj -60 60 ctl/bFilteredCtlIn;
#X msg 45 36 17;
#X obj -60 13 loadbang;
#X obj -60 113 pack 69 f;
#X obj -60 87 t b f;
#X obj 115 83 loadbang;
#X obj -60 280 dac~;
#X obj -60 249 *~ 0.2;
#X msg 115 107 ../../samples/jfk-sputnik.wav;
#X msg -60 36 4;
#X connect 0 0 8 0;
#X connect 1 0 5 0;
#X connect 2 0 1 1;
#X connect 3 0 10 0;
#X connect 3 0 2 0;
#X connect 4 0 0 1;
#X connect 5 0 4 0;
#X connect 5 1 4 1;
#X connect 6 0 9 0;
#X connect 8 0 7 0;
#X connect 8 0 7 1;
#X connect 9 0 0 2;
#X connect 10 0 1 0;
#X restore 20 85 pd sputnik;
#N canvas 329 176 388 413 tape 1;
#X obj 29 78 ctl/bFilteredCtlIn;
#X msg 134 49 17;
#X obj 29 24 loadbang;
#X obj 29 147 instruments/bTapeMachine;
#X obj 197 89 loadbang;
#X msg 197 116 ../samples/jfk.wav;
#X obj 29 105 / 64;
#X floatatom 79 105 5 0 0 0 - - -;
#X obj 27 363 dac~;
#X obj 27 332 *~ 0.2;
#X msg 29 50 11;
#X connect 0 0 6 0;
#X connect 0 0 7 0;
#X connect 1 0 0 1;
#X connect 2 0 10 0;
#X connect 2 0 1 0;
#X connect 3 0 9 0;
#X connect 4 0 5 0;
#X connect 5 0 3 3;
#X connect 6 0 3 1;
#X connect 9 0 8 0;
#X connect 9 0 8 1;
#X connect 10 0 0 0;
#X restore 20 133 pd tape;
#N canvas 55 54 467 368 music 1;
#X obj 39 88 ctl/bFilteredCtlIn;
#X msg 144 59 17;
#X obj 39 34 loadbang;
#X obj 39 157 instruments/bTapeMachine;
#X obj 207 99 loadbang;
#X floatatom 89 115 5 0 0 0 - - -;
#X msg 207 126 ../samples/music.wav;
#X obj 39 371 dac~;
#X obj 39 115 / 127;
#X msg 39 60 10;
#X obj 39 340 *~ 0.4;
#X connect 0 0 5 0;
#X connect 0 0 8 0;
#X connect 1 0 0 1;
#X connect 2 0 9 0;
#X connect 2 0 1 0;
#X connect 3 0 10 0;
#X connect 4 0 6 0;
#X connect 6 0 3 3;
#X connect 8 0 3 1;
#X connect 9 0 0 0;
#X connect 10 0 7 0;
#X connect 10 0 7 1;
#X restore 20 112 pd music;
#N canvas 0 22 452 364 i-believe 0;
#X obj -20 147 instruments/bSampler;
#X obj -20 70 ctl/bFilteredCtlIn;
#X msg 85 46 17;
#X obj -20 23 loadbang;
#X obj -20 123 pack 69 f;
#X obj -20 97 t b f;
#X obj 155 93 loadbang;
#X obj -20 290 dac~;
#X obj -20 259 *~ 0.2;
#X msg -20 46 3;
#X msg 155 117 ../../samples/jfk-i-believe.wav;
#X connect 0 0 8 0;
#X connect 1 0 5 0;
#X connect 2 0 1 1;
#X connect 3 0 9 0;
#X connect 3 0 2 0;
#X connect 4 0 0 1;
#X connect 5 0 4 0;
#X connect 5 1 4 1;
#X connect 6 0 10 0;
#X connect 8 0 7 0;
#X connect 8 0 7 1;
#X connect 9 0 1 0;
#X connect 10 0 0 2;
#X restore 20 64 pd i-believe;
#X connect 3 0 2 0;
#X connect 3 1 1 0;
#X connect 3 2 0 0;
