#N canvas 265 78 955 687 10;
#X obj 140 131 ctl/bFilteredCtlIn;
#X msg 234 99 17;
#X msg 139 97 1;
#X obj 138 54 loadbang;
#X obj 46 230 instruments/bTapeMachine;
#X obj 431 108 loadbang;
#X floatatom 684 51 0 0 0 0 - - -;
#X floatatom 648 51 0 0 0 0 - - -;
#X floatatom 612 49 0 0 0 0 - - -;
#X obj 612 24 ctlin;
#X msg 433 140 ../samples/jfk.wav;
#X obj 240 181 / 64;
#X obj 459 498 instruments/bSampler;
#X obj 459 421 ctl/bFilteredCtlIn;
#X msg 564 397 17;
#X msg 459 397 1;
#X obj 459 374 loadbang;
#X obj 459 474 pack 69 f;
#X obj 459 448 t b f;
#X obj 634 444 loadbang;
#X obj 454 660 dac~;
#X obj 456 626 *~ 0.2;
#X floatatom 293 174 5 0 0 0 - - -;
#X floatatom 363 504 5 0 0 0 - - -;
#X obj 320 562 print;
#X msg 366 417 42;
#X msg 408 418 0;
#X obj 647 330 pack 69 f;
#X obj 647 304 t b f;
#X msg 554 273 42;
#X msg 596 274 0;
#X obj 753 278 bng 15 250 50 0 empty empty empty 17 7 0 10 -262144
-1 -1;
#X obj 840 280 bng 15 250 50 0 empty empty empty 17 7 0 10 -262144
-1 -1;
#X floatatom 753 342 5 0 0 0 - - -;
#X floatatom 793 342 5 0 0 0 - - -;
#X floatatom 834 342 5 0 0 0 - - -;
#X obj 884 342 bng 15 250 50 0 empty empty empty 17 7 0 10 -262144
-1 -1;
#X obj 753 308 ctl/bAssignedNotein;
#X obj 744 391 pack f f;
#X msg 634 468 ../../samples/jfk-space-achievement.wav;
#X connect 0 0 11 0;
#X connect 0 0 22 0;
#X connect 1 0 0 1;
#X connect 2 0 0 0;
#X connect 3 0 2 0;
#X connect 3 0 1 0;
#X connect 5 0 10 0;
#X connect 9 0 8 0;
#X connect 9 1 7 0;
#X connect 9 2 6 0;
#X connect 10 0 4 3;
#X connect 11 0 4 1;
#X connect 12 0 21 0;
#X connect 13 0 18 0;
#X connect 14 0 13 1;
#X connect 15 0 13 0;
#X connect 16 0 15 0;
#X connect 16 0 14 0;
#X connect 17 0 24 0;
#X connect 17 0 12 1;
#X connect 18 0 17 0;
#X connect 18 1 17 1;
#X connect 18 1 23 0;
#X connect 19 0 39 0;
#X connect 21 0 20 0;
#X connect 21 0 20 1;
#X connect 25 0 18 0;
#X connect 26 0 18 0;
#X connect 27 0 12 1;
#X connect 28 0 27 0;
#X connect 28 1 27 1;
#X connect 29 0 28 0;
#X connect 30 0 28 0;
#X connect 31 0 37 0;
#X connect 32 0 37 1;
#X connect 33 0 38 0;
#X connect 34 0 38 1;
#X connect 37 0 33 0;
#X connect 37 1 34 0;
#X connect 37 2 35 0;
#X connect 37 3 36 0;
#X connect 38 0 12 1;
#X connect 39 0 12 2;
