#N canvas 687 76 425 209 10;
#X floatatom 304 39 0 0 0 0 - - -;
#X floatatom 268 39 0 0 0 0 - - -;
#X floatatom 232 39 0 0 0 0 - - -;
#X obj 232 14 ctlin;
#N canvas 322 276 486 342 space-achievement 0;
#X obj -80 147 instruments/bSampler;
#X obj -80 70 ctl/bFilteredCtlIn;
#X msg 25 46 17;
#X msg -80 46 1;
#X obj -80 23 loadbang;
#X obj -80 123 pack 69 f;
#X obj -80 97 t b f;
#X obj 95 93 loadbang;
#X obj -80 290 dac~;
#X msg 95 117 ../../samples/jfk-space-achievement.wav;
#X obj 187 21 openpanel;
#X obj 177 -4 bng 15 250 50 0 empty empty empty 17 7 0 10 -262144 -1
-1;
#X obj -80 259 *~ 0.5;
#X connect 0 0 12 0;
#X connect 1 0 6 0;
#X connect 2 0 1 1;
#X connect 3 0 1 0;
#X connect 4 0 3 0;
#X connect 4 0 2 0;
#X connect 5 0 0 1;
#X connect 6 0 5 0;
#X connect 6 1 5 1;
#X connect 7 0 9 0;
#X connect 9 0 0 2;
#X connect 10 0 0 2;
#X connect 11 0 10 0;
#X connect 12 0 8 0;
#X connect 12 0 8 1;
#X restore 20 22 pd space-achievement;
#N canvas 83 85 488 374 adventure 0;
#X obj -70 157 instruments/bSampler;
#X obj -70 80 ctl/bFilteredCtlIn;
#X msg 35 56 17;
#X obj -70 33 loadbang;
#X obj -70 133 pack 69 f;
#X obj -70 107 t b f;
#X obj 105 103 loadbang;
#X obj -70 300 dac~;
#X msg 105 127 ../../samples/jfk-adventure.wav;
#X msg -70 56 2;
#X obj -70 269 *~ 0.5;
#X connect 0 0 10 0;
#X connect 1 0 5 0;
#X connect 2 0 1 1;
#X connect 3 0 9 0;
#X connect 3 0 2 0;
#X connect 4 0 0 1;
#X connect 5 0 4 0;
#X connect 5 1 4 1;
#X connect 6 0 8 0;
#X connect 8 0 0 2;
#X connect 9 0 1 0;
#X connect 10 0 7 0;
#X connect 10 0 7 1;
#X restore 20 43 pd adventure;
#N canvas 428 300 457 319 sputnik 0;
#X obj -60 137 instruments/bSampler;
#X obj -60 60 ctl/bFilteredCtlIn;
#X msg 45 36 17;
#X obj -60 13 loadbang;
#X obj -60 113 pack 69 f;
#X obj -60 87 t b f;
#X obj 115 83 loadbang;
#X obj -60 280 dac~;
#X msg 115 107 ../../samples/jfk-sputnik.wav;
#X msg -60 36 4;
#X obj -60 249 *~ 0.4;
#X msg 254 71 load;
#X connect 0 0 10 0;
#X connect 1 0 5 0;
#X connect 2 0 1 1;
#X connect 3 0 9 0;
#X connect 3 0 2 0;
#X connect 4 0 0 1;
#X connect 5 0 4 0;
#X connect 5 1 4 1;
#X connect 6 0 8 0;
#X connect 8 0 0 2;
#X connect 9 0 1 0;
#X connect 10 0 7 0;
#X connect 10 0 7 1;
#X connect 11 0 0 2;
#X restore 20 85 pd sputnik;
#N canvas 136 344 456 413 tape 0;
#X obj 29 78 ctl/bFilteredCtlIn;
#X msg 134 49 17;
#X obj 29 24 loadbang;
#X obj 197 89 loadbang;
#X msg 197 116 ../samples/jfk.wav;
#X obj 29 105 / 64;
#X floatatom 79 105 5 0 0 0 - - -;
#X obj 27 363 dac~;
#X msg 29 50 11;
#X obj 213 5 bng 15 250 50 0 empty empty empty 17 7 0 10 -262144 -1
-1;
#X obj 29 147 instruments/bTapeMachine;
#X obj 27 332 *~ 0.5;
#X connect 0 0 5 0;
#X connect 0 0 6 0;
#X connect 1 0 0 1;
#X connect 2 0 8 0;
#X connect 2 0 1 0;
#X connect 3 0 4 0;
#X connect 4 0 10 3;
#X connect 5 0 10 1;
#X connect 8 0 0 0;
#X connect 9 0 4 0;
#X connect 10 0 11 0;
#X connect 11 0 7 0;
#X connect 11 0 7 1;
#X restore 20 133 pd tape;
#N canvas 745 317 452 364 i-believe 0;
#X obj -20 147 instruments/bSampler;
#X obj -20 70 ctl/bFilteredCtlIn;
#X msg 85 46 17;
#X obj -20 23 loadbang;
#X obj -20 123 pack 69 f;
#X obj -20 97 t b f;
#X obj 155 93 loadbang;
#X obj -20 290 dac~;
#X msg -20 46 3;
#X msg 155 117 ../../samples/jfk-i-believe.wav;
#X obj -20 259 *~ 0.5;
#X connect 0 0 10 0;
#X connect 1 0 5 0;
#X connect 2 0 1 1;
#X connect 3 0 8 0;
#X connect 3 0 2 0;
#X connect 4 0 0 1;
#X connect 5 0 4 0;
#X connect 5 1 4 1;
#X connect 6 0 9 0;
#X connect 8 0 1 0;
#X connect 9 0 0 2;
#X connect 10 0 7 0;
#X connect 10 0 7 1;
#X restore 20 64 pd i-believe;
#X msg 225 114 \; pd dsp 1;
#X obj 225 81 loadbang;
#X obj 303 72 bng 30 250 50 0 empty empty empty 17 7 0 10 -258113 -1
-1;
#X msg 303 114 \; pd dsp 0;
#N canvas 108 290 912 310 waypoints 1;
#X obj -6 81 ctl/bFilteredCtlIn;
#X msg 99 57 17;
#X obj -6 12 loadbang;
#X obj -6 282 dac~;
#X obj -6 247 *~ 0.2;
#X obj -6 119 osc~ 264;
#X obj -6 192 *~ 0;
#X msg -6 57 21;
#X floatatom 28 192 5 0 0 0 - - -;
#X obj 15 143 / 128;
#X obj 15 167 expr $f1 * $f1;
#X obj 144 81 ctl/bFilteredCtlIn;
#X msg 249 57 17;
#X obj 144 12 loadbang;
#X obj 144 192 *~ 0;
#X floatatom 178 192 5 0 0 0 - - -;
#X obj 165 143 / 128;
#X obj 165 167 expr $f1 * $f1;
#X obj 294 81 ctl/bFilteredCtlIn;
#X msg 399 57 17;
#X obj 294 12 loadbang;
#X obj 294 192 *~ 0;
#X floatatom 328 192 5 0 0 0 - - -;
#X obj 315 143 / 128;
#X obj 315 167 expr $f1 * $f1;
#X obj 444 81 ctl/bFilteredCtlIn;
#X msg 549 57 17;
#X obj 444 12 loadbang;
#X obj 444 192 *~ 0;
#X floatatom 478 192 5 0 0 0 - - -;
#X obj 465 143 / 128;
#X obj 465 167 expr $f1 * $f1;
#X obj 594 81 ctl/bFilteredCtlIn;
#X msg 699 57 17;
#X obj 594 12 loadbang;
#X obj 594 192 *~ 0;
#X floatatom 628 192 5 0 0 0 - - -;
#X obj 615 143 / 128;
#X obj 615 167 expr $f1 * $f1;
#X obj 744 81 ctl/bFilteredCtlIn;
#X msg 849 57 17;
#X obj 744 12 loadbang;
#X obj 744 192 *~ 0;
#X floatatom 778 192 5 0 0 0 - - -;
#X obj 765 143 / 128;
#X obj 765 167 expr $f1 * $f1;
#X msg 144 57 22;
#X msg 294 57 23;
#X msg 444 57 24;
#X msg 594 57 25;
#X msg 744 57 26;
#X obj 144 119 osc~ 330;
#X obj 294 119 osc~ 396;
#X obj 444 119 osc~ 462;
#X obj 594 119 osc~ 528;
#X obj 744 119 osc~ 594;
#X connect 0 0 9 0;
#X connect 1 0 0 1;
#X connect 2 0 7 0;
#X connect 2 0 1 0;
#X connect 4 0 3 0;
#X connect 4 0 3 1;
#X connect 5 0 6 0;
#X connect 6 0 4 0;
#X connect 7 0 0 0;
#X connect 9 0 10 0;
#X connect 10 0 8 0;
#X connect 10 0 6 1;
#X connect 11 0 16 0;
#X connect 12 0 11 1;
#X connect 13 0 46 0;
#X connect 13 0 12 0;
#X connect 14 0 4 0;
#X connect 16 0 17 0;
#X connect 17 0 15 0;
#X connect 17 0 14 1;
#X connect 18 0 23 0;
#X connect 19 0 18 1;
#X connect 20 0 47 0;
#X connect 20 0 19 0;
#X connect 21 0 4 0;
#X connect 23 0 24 0;
#X connect 24 0 22 0;
#X connect 24 0 21 1;
#X connect 25 0 30 0;
#X connect 26 0 25 1;
#X connect 27 0 48 0;
#X connect 27 0 26 0;
#X connect 28 0 4 0;
#X connect 30 0 31 0;
#X connect 31 0 29 0;
#X connect 31 0 28 1;
#X connect 32 0 37 0;
#X connect 33 0 32 1;
#X connect 34 0 49 0;
#X connect 34 0 33 0;
#X connect 35 0 4 0;
#X connect 37 0 38 0;
#X connect 38 0 36 0;
#X connect 38 0 35 1;
#X connect 39 0 44 0;
#X connect 40 0 39 1;
#X connect 41 0 50 0;
#X connect 41 0 40 0;
#X connect 42 0 4 0;
#X connect 44 0 45 0;
#X connect 45 0 43 0;
#X connect 45 0 42 1;
#X connect 46 0 11 0;
#X connect 47 0 18 0;
#X connect 48 0 25 0;
#X connect 49 0 32 0;
#X connect 50 0 39 0;
#X connect 51 0 14 0;
#X connect 52 0 21 0;
#X connect 53 0 28 0;
#X connect 54 0 35 0;
#X connect 55 0 42 0;
#X restore 21 165 pd waypoints;
#N canvas 55 54 467 368 break 0;
#X obj 39 88 ctl/bFilteredCtlIn;
#X msg 144 59 17;
#X obj 39 34 loadbang;
#X obj 39 157 instruments/bTapeMachine;
#X obj 207 99 loadbang;
#X floatatom 89 115 5 0 0 0 - - -;
#X obj 39 371 dac~;
#X obj 39 115 / 127;
#X msg 39 60 10;
#X obj 39 340 *~ 0.4;
#X msg 207 126 ../samples/amen-cut.wav;
#X connect 0 0 5 0;
#X connect 0 0 7 0;
#X connect 1 0 0 1;
#X connect 2 0 8 0;
#X connect 2 0 1 0;
#X connect 3 0 9 0;
#X connect 4 0 10 0;
#X connect 7 0 3 1;
#X connect 8 0 0 0;
#X connect 9 0 6 0;
#X connect 9 0 6 1;
#X connect 10 0 3 3;
#X restore 20 112 pd break;
#X connect 3 0 2 0;
#X connect 3 1 1 0;
#X connect 3 2 0 0;
#X connect 10 0 9 0;
#X connect 11 0 12 0;
