#N canvas 375 148 737 579 10;
#X obj 128 339 util/bSink~;
#X obj 117 56 bng 15 250 50 0 empty empty empty 17 7 0 10 -262144 -1
-1;
#X obj 198 56 bng 15 250 50 0 empty empty empty 17 7 0 10 -262144 -1
-1;
#X floatatom 117 120 5 0 0 0 - - -;
#X floatatom 157 120 5 0 0 0 - - -;
#X floatatom 198 120 5 0 0 0 - - -;
#X obj 248 120 bng 15 250 50 0 empty empty empty 17 7 0 10 -262144
-1 -1;
#X obj 117 86 ctl/bAssignedCtlin;
#X obj 352 59 bng 15 250 50 0 empty empty empty 17 7 0 10 -262144 -1
-1;
#X obj 439 61 bng 15 250 50 0 empty empty empty 17 7 0 10 -262144 -1
-1;
#X floatatom 352 123 5 0 0 0 - - -;
#X floatatom 392 123 5 0 0 0 - - -;
#X floatatom 433 123 5 0 0 0 - - -;
#X obj 483 123 bng 15 250 50 0 empty empty empty 17 7 0 10 -262144
-1 -1;
#X obj 352 89 ctl/bAssignedNotein;
#X obj 121 200 instruments/bSampler;
#X msg 517 159 load;
#X obj 353 161 pack f f;
#X floatatom 492 318 5 0 0 0 - - -;
#X connect 1 0 7 0;
#X connect 2 0 7 1;
#X connect 7 0 3 0;
#X connect 7 1 4 0;
#X connect 7 2 5 0;
#X connect 7 3 6 0;
#X connect 8 0 14 0;
#X connect 9 0 14 1;
#X connect 10 0 17 0;
#X connect 11 0 17 1;
#X connect 14 0 10 0;
#X connect 14 1 11 0;
#X connect 14 2 12 0;
#X connect 14 3 13 0;
#X connect 15 0 0 0;
#X connect 15 0 0 1;
#X connect 15 1 18 0;
#X connect 16 0 15 2;
#X connect 17 0 15 1;
