#N canvas 364 22 737 579 10;
#X obj 32 123 loadbang;
#X msg 32 155 60;
#X obj 131 121 ctl/bFilteredCtlIn;
#X msg 225 89 17;
#X msg 130 87 1;
#X obj 287 119 ctl/bFilteredCtlIn;
#X msg 381 87 17;
#X obj 129 44 loadbang;
#X obj 286 43 loadbang;
#X obj 135 257 util/bSink~;
#X floatatom 170 165 5 0 0 0 - - -;
#X msg 286 85 2;
#X floatatom 309 163 5 0 0 0 - - -;
#X obj 256 154 / 127;
#X obj 285 337 util/bSink~;
#X obj 292 239 mtof;
#X obj 77 203 instruments/bOscilotron~;
#X obj 289 295 instruments/bTriangle~;
#X obj 296 203 / 2;
#X obj 117 156 / 20;
#X obj 490 336 util/bSink~;
#X obj 526 211 mtof;
#X obj 539 243 osc~;
#X obj 581 334 util/bSink~;
#X obj 530 175 / 1.2;
#X obj 511 290 filter/wTremolo~;
#X obj 592 213 / 10;
#X connect 0 0 1 0;
#X connect 1 0 16 0;
#X connect 2 0 19 0;
#X connect 2 0 26 0;
#X connect 3 0 2 1;
#X connect 4 0 2 0;
#X connect 5 0 13 0;
#X connect 5 0 18 0;
#X connect 5 0 24 0;
#X connect 6 0 5 1;
#X connect 7 0 4 0;
#X connect 7 0 3 0;
#X connect 8 0 11 0;
#X connect 8 0 6 0;
#X connect 11 0 5 0;
#X connect 13 0 12 0;
#X connect 13 0 16 2;
#X connect 15 0 17 0;
#X connect 16 0 9 0;
#X connect 16 1 9 1;
#X connect 17 0 14 0;
#X connect 17 0 14 1;
#X connect 18 0 15 0;
#X connect 19 0 10 0;
#X connect 19 0 16 1;
#X connect 19 0 17 1;
#X connect 21 0 22 0;
#X connect 22 0 23 0;
#X connect 22 0 23 1;
#X connect 22 0 25 0;
#X connect 24 0 21 0;
#X connect 25 0 20 0;
#X connect 25 0 20 1;
#X connect 26 0 25 1;
